<svg width="48" height="56" viewBox="0 0 48 56" fill="none" xmlns="http://www.w3.org/2000/svg">
<path fill-rule="evenodd" clip-rule="evenodd" d="M32.614 4.5767C32.8529 2.44305 31.3402 0.516399 29.2066 0.277558C27.0729 0.0227946 25.1463 1.55138 24.9074 3.68502C24.6208 6.1212 25.0189 9.03506 25.5284 12.0285C26.9455 12.4585 28.3149 13.0794 29.5887 13.8119C30.9581 10.5796 32.2956 7.3791 32.614 4.5767ZM47.5973 13.9393C46.7534 11.9648 44.4605 11.0732 42.4861 11.9171C39.8907 13.0476 37.1998 15.2609 34.4929 17.5378C35.512 18.5409 36.4673 19.6715 37.2794 20.8975C40.3525 20.5154 43.2982 20.0536 45.5751 19.0664C47.5496 18.1906 48.4572 15.8978 47.5973 13.9393ZM41.0531 3.5258C39.3334 2.25198 36.8972 2.60228 35.6234 4.32193C33.6809 6.93326 32.3752 10.8343 30.9581 14.6399C31.4357 14.9583 31.8816 15.2768 32.3115 15.6112C32.63 15.8659 32.9643 16.1366 33.2987 16.4073C36.5469 13.9552 39.9226 11.5668 41.8651 8.95545C43.139 7.23579 42.7727 4.79962 41.0531 3.5258Z" fill="#53B175"/>
<path d="M33.665 34.7025C32.4708 35.9923 31.197 37.1865 29.8435 38.3488C27.9487 39.9889 26.0221 41.5811 24.0636 43.1097C21.9618 41.82 20.4491 41.1672 20.1943 41.5015C19.9714 41.8041 20.8472 42.9187 22.4235 44.3676C17.1372 48.3005 11.5483 51.7717 5.54542 54.6219C4.60598 55.0677 3.61877 55.3862 2.64748 55.7365C2.39272 55.832 2.12203 55.832 2.01057 55.8479C0.48199 56.0231 0.020231 55.6091 0.083922 54.2079C0.274995 49.845 1.62843 45.7529 3.02963 41.6767C3.41177 40.5621 3.80984 39.4475 4.22383 38.3329C6.34156 39.6226 7.85422 40.2914 8.10898 39.957C8.37967 39.5908 7.10585 38.1259 4.9722 36.2948C6.50079 32.346 8.20452 28.4608 10.2108 24.7349C14.2233 27.7124 17.79 29.6709 18.1881 29.1296C18.5861 28.5882 15.6404 25.7062 11.5801 22.6968L11.405 22.5694C12.1056 21.3752 12.838 20.181 13.6182 19.0186C14.5895 17.5537 15.7837 16.2162 16.962 14.9106C18.5384 13.175 20.5765 12.5858 22.8534 13.0954C30.1461 14.7195 35.2095 18.9072 37.5979 26.0883C38.0756 27.5532 37.6457 28.9863 36.8973 30.3078C36.3878 31.1995 35.8305 32.0434 35.2095 32.8396C31.3562 30.0212 28.0124 28.206 27.6303 28.7156C27.264 29.2251 29.9231 31.8524 33.665 34.7025Z" fill="#F3603F"/>
</svg>
